PathFileType	4	(X/Y/Z)	RBDS08\RBDS08runT25.trc
DataRate	CameraRate	NumFrames	NumMarkers	Units	OrigDataRate	OrigDataStartFrame	OrigNumFrames
150.000000	150.000000	4	33	mm	150.000000	562	4500
Frame#	Time	L.ASIS			L.Heel.Bottom			L.Heel.Lateral			L.Heel.Top			L.Iliac.Crest			L.MT1			L.MT5			L.PSIS			L.Shank.Bottom.Lateral			L.Shank.Bottom.Medial			L.Shank.Top.Lateral			L.Shank.Top.Medial			L.Thigh.Bottom.Lateral			L.Thigh.Bottom.Medial			L.Thigh.Top.Lateral			L.Thigh.Top.Medial			R.ASIS			R.ASY			R.Heel.Bottom			R.Heel.Lateral			R.Heel.Top			R.Iliac.Crest			R.MT1			R.MT5			R.PSIS			R.Shank.Bottom.Lateral			R.Shank.Bottom.Medial			R.Shank.Top.Lateral			R.Shank.Top.Medial			R.Thigh.Bottom.Lateral			R.Thigh.Bottom.Medial			R.Thigh.Top.Lateral			R.Thigh.Top.Medial			
		X1	Y1	Z1	X2	Y2	Z2	X3	Y3	Z3	X4	Y4	Z4	X5	Y5	Z5	X6	Y6	Z6	X7	Y7	Z7	X8	Y8	Z8	X9	Y9	Z9	X10	Y10	Z10	X11	Y11	Z11	X12	Y12	Z12	X13	Y13	Z13	X14	Y14	Z14	X15	Y15	Z15	X16	Y16	Z16	X17	Y17	Z17	X18	Y18	Z18	X19	Y19	Z19	X20	Y20	Z20	X21	Y21	Z21	X22	Y22	Z22	X23	Y23	Z23	X24	Y24	Z24	X25	Y25	Z25	X26	Y26	Z26	X27	Y27	Z27	X28	Y28	Z28	X29	Y29	Z29	X30	Y30	Z30	X31	Y31	Z31	X32	Y32	Z32	X33	Y33	Z33	

563	3.746666666666667	2133.507978203752	1032.001091687821	895.5737359422949	1536.804768065545	233.6198899299426	965.8814660486818	1569.637596240063	213.4705909514435	924.0155879202933	1583.836188105537	253.8544619801778	967.3404812713412	2094.49724195649	1113.30364156689	876.0104763431395	1685.935807843056	71.32267094733956	1024.920305580169	1648.580385198149	79.39558737697601	919.2333223400294	1971.611383982689	1081.568528264526	971.6287541930831	1667.888292675025	271.3052944570598	914.6687154679383	1638.91466780562	294.6174074729308	951.2053374330281	1706.355269019327	340.6044374437111	897.258182214976	1682.220041688438	366.2097227158138	937.3846758654699	1933.83924824942	678.8869186683788	848.6833303551408	1879.235391834617	694.0039303016974	894.8072484047262	1951.752531959259	787.7779231422477	839.2990376864989	1904.983636599067	800.7463705559495	889.8435045710511	2143.482679417139	1039.938991511307	1119.1920325964	2271.703470906211	161.4364352578788	1063.787159134268	2093.454665594837	89.6988181862459	1038.655051787436	2113.94998111636	109.4911928534777	1082.782909335051	2103.452953076208	138.8020516770343	1035.778997360455	2090.278160526734	1114.577801355226	1160.764782979501	2320.87981471715	109.9745904531831	1030.547922264608	2273.878312455205	109.1622646394612	1129.210394748502	1978.704921805767	1083.70756889367	1074.268816164065	2161.926622361129	250.7436529391586	1094.914851509126	2139.091412309344	258.9662058482549	1045.68637115093	2166.46103362788	331.70844795916	1103.424208593222	2147.372724093294	338.3577508824163	1053.425758408878	2233.832987802551	669.2860614416142	1146.174689619071	2176.817110957058	638.2569748475037	1112.806475839937	2171.755484380675	757.6735121622829	1169.727094317381	2117.826142285775	727.7378112923072	1139.183584853814	
564	3.753333333333333	2134.568382179873	1033.081946207392	895.5490832014641	1533.334628547602	244.7045953996074	966.26714231683	1564.578700829982	222.8874765371687	923.9465610286862	1581.278713098399	262.6590507207373	966.9590232153831	2095.546681107689	1114.252020903463	876.0216166335141	1675.636415616833	75.49730305715319	1023.402176270471	1637.176598617864	84.39571168853543	918.5063019260219	1972.423350844373	1082.304895903753	971.508798601025	1663.648785029051	276.8588729683772	913.9827024072587	1635.485757965209	300.3235353563798	951.0690969011396	1703.447986544855	345.4881275476868	897.0934914212392	1679.96903394742	371.2292563884701	937.5049222177578	1935.197598697546	679.7630157066299	849.2477325436099	1880.669167277748	695.1349342652762	895.3915788929795	1953.318122261071	788.5789573373789	839.5304978517831	1906.626181807582	801.821015786932	890.0941313563379	2143.629789045777	1040.703483706499	1119.077724815829	2285.771301104684	159.8471075578986	1060.793725984914	2111.042715933971	79.24738025211927	1038.634792889398	2131.416098675146	99.72888486411071	1082.567132380886	2118.391738319529	128.8035289717584	1036.105819717641	2090.601655241985	1115.223768383222	1161.386462888651	2336.557025331956	111.3606973601419	1025.907053511658	2291.965373016365	107.3520658605016	1125.564080535542	1979.634780760533	1084.122159966278	1074.193130592356	2172.98457693401	243.7666490515291	1095.13442610201	2149.002064694504	251.5968920238057	1046.360171384487	2174.317884177803	324.6832268737578	1104.545448199933	2154.092976163063	331.132354901655	1054.96854411201	2230.842467994456	666.8008106399059	1147.106847317125	2173.848495143983	636.5761149968952	1113.1160320354	2169.806527338684	755.9610566230671	1170.266336472496	2115.765524956054	726.7893811164731	1139.245611454052	
565	3.76	2135.518913555607	1033.783526298144	895.3993611415466	1530.162806970112	255.5117122163817	966.8137296943987	1559.784510839543	232.2833164132088	923.9758799850256	1578.892092475415	271.2373022893134	966.764209915116	2096.431990533741	1114.852126473071	875.9517278615444	1665.753902567802	79.91867459042629	1021.710299404782	1626.210846585389	89.90672961135196	917.637750503496	1973.159005513414	1082.567725649045	971.3130713512254	1659.813128499632	282.3356943871573	913.3996011515391	1632.493784997885	306.0529517684468	950.9523660356376	1701.14905861366	350.1169242314677	896.9831828424144	1678.341950821434	376.0985704331731	937.6088142215267	1937.339176790381	679.794004103593	849.9419918455054	1882.818926656056	695.3265072476095	896.0604643694353	1955.431836795279	788.5604491163116	839.7832235530578	1908.668137821693	802.021650312459	890.2387949711093	2143.716371439691	1041.005400248527	1118.888204464217	2298.60213535958	158.4945856435642	1057.59475693579	2127.538331871478	69.51562065358718	1038.862341467838	2147.969634662755	90.60629750582871	1082.532568611702	2132.333036767077	119.4092962758324	1036.715032386627	2090.741449558835	1115.161089497777	1162.023779382597	2350.593263513253	112.9352777700801	1020.809205383791	2308.90896593313	105.8559154519498	1121.554277431626	1980.451470100863	1083.978883134706	1074.042291221331	2183.344157113237	237.0643341918842	1095.498774356353	2158.074351965012	244.4797370612463	1047.273349424047	2181.64634393068	317.789608431873	1105.849931579803	2160.179812556449	324.0155369905474	1056.766818354158	2227.558035675976	663.795084420178	1148.12627128904	2170.664628022382	634.4694268732236	1113.342071242513	2167.617741422163	753.7381694176238	1170.866959838606	2113.510536200045	725.3978456951916	1139.248139378194	
566	3.766666666666667	2136.374915575045	1034.066969463732	895.1518059697369	1527.210160704284	265.9898640871266	967.4961512375573	1555.24047497105	241.6357531075929	924.0966472646609	1576.599708487086	279.5765307601485	966.7725949940177	2097.128574917635	1115.102760610359	875.805126191648	1656.313623477179	84.56524207950424	1019.864119496874	1615.792305592189	95.94370945515993	916.6021041630197	1973.836163569227	1082.334927828004	971.0158922185406	1656.377628577394	287.7517162772351	912.9210599200724	1629.93316664678	311.8294546626527	950.8566696493237	1699.440702155229	354.5005722057369	896.920645269291	1677.33565317651	380.8260646347154	937.7021494127006	1940.264292474344	678.9244830310155	850.7252954929338	1885.676354713144	694.5072408656173	896.7670638809485	1958.083255265531	787.6692591974236	840.0391055362527	1911.087816558164	801.2754107419501	890.2511177876274	2143.768960839397	1040.85327704117	1118.649685850669	2310.106664806915	157.2280995646128	1054.276407695384	2142.69948747328	60.53526134803815	1039.224456284894	2163.349533494197	82.15068562791012	1082.575922871767	2145.119380298013	110.6664215414673	1037.477623013232	2090.711534771014	1114.426650782195	1162.614662236136	2362.93363036277	114.4367521628546	1015.432643646306	2324.467690868951	104.5004328849661	1117.287354498772	1981.150409304876	1083.287927172739	1073.799157178547	2192.87323569376	230.5995434867171	1095.928624698227	2166.226142294081	237.5729998560164	1048.322575318851	2188.331256820369	311.022377888657	1107.23472458795	2165.566819370778	316.9939266345473	1058.700145147059	2224.028511236004	660.3586289069536	1149.17612951857	2167.275629062575	631.9978397243249	1113.501268610844	2165.216180989074	751.0839993336359	1171.494354620663	2111.08249539289	723.6199827720066	1139.191549274378	
